<svg height="67" width="67" xmlns="http://www.w3.org/2000/svg"><path d="M44.164 46.268h5.104c0-14.633-11.904-26.545-26.535-26.545v5.09c11.814-.001 21.431 9.625 21.431 21.455zm-9.021.003h5.11c0-9.665-7.862-17.526-17.521-17.526v5.088c3.313 0 6.429 1.295 8.774 3.642a12.354 12.354 0 0 1 3.637 8.796zm-8.877.006a3.525 3.525 0 0 0 3.538-3.521 3.537 3.537 0 0 0-3.538-3.527 3.538 3.538 0 0 0-3.533 3.527 3.524 3.524 0 0 0 3.533 3.521zM3 4h60v60H3V4z" fill-rule="evenodd" clip-rule="evenodd" fill="#e19126"/></svg>